<mxfile host="app.diagrams.net" agent="Mozilla/5.0 (Android 14; Mobile; rv:131.0) Gecko/131.0 Firefox/131.0" version="24.8.2">
  <diagram name="Page-1" id="ePiMO5LZuyXboZaG_DN_">
    <mxGraphModel>
      <root>
        <mxCell id="0" />
        <mxCell id="1" parent="0" />
      </root>
    </mxGraphModel>
  </diagram>
</mxfile>
